<?xml version="1.0" encoding="UTF-8" standalone="no"?>
<!DOCTYPE svg PUBLIC "-//W3C//DTD SVG 1.1//EN" "http://www.w3.org/Graphics/SVG/1.1/DTD/svg11.dtd">
<svg width="100%" height="100%" viewBox="0 0 512 512" version="1.1" xmlns="http://www.w3.org/2000/svg" xmlns:xlink="http://www.w3.org/1999/xlink" xml:space="preserve" xmlns:serif="http://www.serif.com/" style="fill-rule:evenodd;clip-rule:evenodd;stroke-linejoin:round;stroke-miterlimit:2;">
    <g transform="matrix(0.826735,0,0,0.826735,44.3558,44.3558)">
        <path d="M226.48,507.285C223.673,507.4 220.863,507.458 218.039,507.458C106.438,507.458 15.832,416.852 15.832,305.251L15.832,206.749C15.832,95.148 106.438,4.542 218.039,4.542C329.64,4.542 420.246,95.148 420.246,206.749L420.246,307.049C420.246,314.833 423.339,322.298 428.843,327.802C434.347,333.306 441.812,336.398 449.596,336.398L463.842,336.398C466.482,336.398 469.049,336.714 471.508,337.312L474.117,338.065C486.932,342.357 496.168,354.462 496.168,368.724C496.168,395.626 464.21,507.458 229.216,507.458C228.263,507.458 227.353,507.4 226.48,507.285ZM196.43,268.076C220.219,268.076 239.534,287.39 239.534,311.18C239.534,334.969 220.219,354.284 196.43,354.284C172.64,354.284 153.326,334.969 153.326,311.18C153.326,287.39 172.64,268.076 196.43,268.076ZM278.731,147.658C304.263,147.658 324.992,172.609 324.992,203.342C324.992,234.075 304.263,259.026 278.731,259.026C253.199,259.026 232.471,234.075 232.471,203.342C232.471,172.609 253.199,147.658 278.731,147.658ZM117.246,147.658C142.778,147.658 163.507,172.609 163.507,203.342C163.507,234.075 142.778,259.026 117.246,259.026C91.714,259.026 70.986,234.075 70.986,203.342C70.986,172.609 91.714,147.658 117.246,147.658Z"/>
    </g>
</svg>
