<?xml version="1.0" encoding="UTF-8" standalone="no"?>
<!DOCTYPE svg PUBLIC "-//W3C//DTD SVG 1.1//EN" "http://www.w3.org/Graphics/SVG/1.1/DTD/svg11.dtd">
<svg width="50" height="50" viewBox="0 0 50 50" fill="none" xmlns="http://www.w3.org/2000/svg">
    <g clip-path="url(#clip0_4101_13192)">
        <path d="M25.3854 30.7153C27.2518 30.7153 28.8844 30.1078 30.2834 28.8929C31.6823 27.6776 32.3818 26.1941 32.3818 24.4424C32.3818 22.9753 31.9091 21.7083 30.9636 20.6413C30.0181 19.5743 28.8547 19.0408 27.4735 19.0408C26.3238 19.0408 25.3308 19.4278 24.4943 20.2017C23.6575 20.9757 23.2391 21.8814 23.2391 22.9189C23.2391 23.4415 23.3372 23.9147 23.5334 24.3387C23.7292 24.7623 24.0018 25.1571 24.3511 25.5231L25.5427 24.5116C25.2837 24.3022 25.0861 24.0573 24.95 23.7767C24.8139 23.4965 24.7459 23.2193 24.7459 22.945C24.7459 22.388 24.9865 21.8491 25.4677 21.3283C25.9493 20.8075 26.6188 20.547 27.4761 20.547C28.3295 20.547 29.1028 20.9047 29.7959 21.62C30.4889 22.3352 30.8354 23.275 30.8354 24.4392C30.8354 25.6847 30.3129 26.7844 29.2677 27.7382C28.2226 28.692 26.9358 29.1689 25.4073 29.1689C23.6427 29.1689 22.1044 28.4424 20.7922 26.9892C19.4801 25.5361 18.824 23.7712 18.824 21.6944C18.824 20.617 19.0304 19.5748 19.4433 18.5679C19.8558 17.5609 20.4728 16.6469 21.2943 15.8257L20.2021 14.8319C19.2816 15.783 18.5707 16.8415 18.0693 18.0075C17.5683 19.1731 17.3177 20.3977 17.3177 21.6814C17.3177 24.1526 18.0943 26.276 19.6474 28.0517C21.2005 29.8274 23.1132 30.7153 25.3854 30.7153ZM15.9235 42.8267V34.8965C13.9311 33.2337 12.3913 31.3113 11.3042 29.1293C10.217 26.9474 9.67346 24.7057 9.67346 22.4043C9.67346 18.1706 11.1703 14.5705 14.1641 11.6038C17.1578 8.63714 20.7854 7.15381 25.0469 7.15381C28.2396 7.15381 31.1782 8.0328 33.8625 9.79079C36.5469 11.5491 38.3183 13.8043 39.1766 16.5564L42.0532 26.0481C42.1868 26.5085 42.1221 26.92 41.8589 27.2825C41.5953 27.6453 41.2268 27.8267 40.7532 27.8267H37.8464V35.0382C37.8464 35.8243 37.575 36.4856 37.0323 37.022C36.4896 37.5585 35.8316 37.8267 35.0584 37.8267H29.0964V42.8267H27.5901V36.3205H35.0584C35.4188 36.3205 35.7226 36.2002 35.9698 35.9595C36.2167 35.7193 36.3401 35.4121 36.3401 35.0382V26.3205H40.513L37.7985 17.2137C37.0214 14.6832 35.4401 12.6248 33.0547 11.0387C30.6696 9.45294 28.0019 8.66006 25.0516 8.66006C21.1762 8.66006 17.8955 10.0059 15.2094 12.6976C12.5229 15.3892 11.1797 18.6528 11.1797 22.4882C11.1797 24.5476 11.6148 26.4988 12.4849 28.3418C13.3551 30.1845 14.5801 31.7656 16.1599 33.0851L17.4297 34.1991V42.8267H15.9235Z" fill="black"></path>
    </g>
    <defs>
        <clipPath id="clip0_4101_13192">
            <rect width="50" height="50" fill="white"></rect>
        </clipPath>
    </defs>
</svg>