<?xml version="1.0" encoding="UTF-8" standalone="no"?>
<!DOCTYPE svg PUBLIC "-//W3C//DTD SVG 1.1//EN" "http://www.w3.org/Graphics/SVG/1.1/DTD/svg11.dtd">
<svg width="100%" height="100%" viewBox="0 0 192 192" version="1.1" xmlns="http://www.w3.org/2000/svg" xmlns:xlink="http://www.w3.org/1999/xlink" xml:space="preserve" xmlns:serif="http://www.serif.com/" style="fill-rule:evenodd;clip-rule:evenodd;stroke-linejoin:round;stroke-miterlimit:2;">
    <g transform="matrix(1.28773,0,0,1.28773,-27.6221,-27.6221)">
        <path d="M151.116,45.823C163.186,59.071 170.55,76.682 170.55,96C170.55,137.145 137.145,170.55 96,170.55C54.855,170.55 21.45,137.145 21.45,96C21.45,54.855 54.855,21.45 96,21.45C110.981,21.45 124.936,25.879 136.627,33.498L103.733,115.793L75.82,104.636L97.222,51.092C96.817,51.081 96.409,51.076 96,51.076C71.206,51.076 51.076,71.206 51.076,96C51.076,120.794 71.206,140.924 96,140.924C120.794,140.924 140.924,120.794 140.924,96C140.924,90.11 139.788,84.484 137.724,79.329L151.116,45.823Z"/>
    </g>
</svg>
